<svg width="245" height="26" viewBox="0 0 245 26" fill="none" xmlns="http://www.w3.org/2000/svg">
<rect y="1" width="24" height="24" rx="12" fill="url(#paint0_linear_10_36960)"/>
<path fill-rule="evenodd" clip-rule="evenodd" d="M10.516 9.5739C9.98929 9.2387 9.29999 9.61708 9.29999 10.2414V16.2207C9.29999 16.845 9.98929 17.2234 10.516 16.8882L15.214 13.8986C15.7026 13.5877 15.7026 12.8744 15.214 12.5635L10.516 9.5739Z" fill="white"/>
<path d="M39.4716 10.5625C39.4186 10.0663 39.1951 9.67992 38.8011 9.40341C38.411 9.12689 37.9034 8.98864 37.2784 8.98864C36.839 8.98864 36.4621 9.05492 36.1477 9.1875C35.8333 9.32008 35.5928 9.5 35.4261 9.72727C35.2595 9.95455 35.1742 10.214 35.1705 10.5057C35.1705 10.7481 35.2254 10.9583 35.3352 11.1364C35.4489 11.3144 35.6023 11.4659 35.7955 11.5909C35.9886 11.7121 36.2027 11.8144 36.4375 11.8977C36.6723 11.9811 36.9091 12.0511 37.1477 12.108L38.2386 12.3807C38.678 12.483 39.1004 12.6212 39.5057 12.7955C39.9148 12.9697 40.2803 13.1894 40.6023 13.4545C40.928 13.7197 41.1856 14.0398 41.375 14.4148C41.5644 14.7898 41.6591 15.2292 41.6591 15.733C41.6591 16.4148 41.4848 17.0152 41.1364 17.5341C40.7879 18.0492 40.2841 18.4527 39.625 18.7443C38.9697 19.0322 38.1761 19.1761 37.2443 19.1761C36.339 19.1761 35.553 19.036 34.8864 18.7557C34.2235 18.4754 33.7045 18.0663 33.3295 17.5284C32.9583 16.9905 32.7576 16.3352 32.7273 15.5625H34.8011C34.8314 15.9678 34.9564 16.3049 35.1761 16.5739C35.3958 16.8428 35.6818 17.0436 36.0341 17.1761C36.3902 17.3087 36.7879 17.375 37.2273 17.375C37.6856 17.375 38.0871 17.3068 38.4318 17.1705C38.7803 17.0303 39.053 16.8371 39.25 16.5909C39.447 16.3409 39.5473 16.0492 39.5511 15.7159C39.5473 15.4129 39.4583 15.1629 39.2841 14.9659C39.1098 14.7652 38.8655 14.5985 38.5511 14.4659C38.2405 14.3295 37.8769 14.2083 37.4602 14.1023L36.1364 13.7614C35.178 13.5152 34.4205 13.142 33.8636 12.642C33.3106 12.1383 33.0341 11.4697 33.0341 10.6364C33.0341 9.95076 33.2197 9.35038 33.5909 8.83523C33.9659 8.32008 34.4754 7.92045 35.1193 7.63636C35.7633 7.34848 36.4924 7.20455 37.3068 7.20455C38.1326 7.20455 38.8561 7.34848 39.4773 7.63636C40.1023 7.92045 40.5928 8.31629 40.9489 8.82386C41.3049 9.32765 41.4886 9.9072 41.5 10.5625H39.4716ZM47.3111 19.1705C46.4361 19.1705 45.6804 18.9886 45.044 18.625C44.4115 18.2576 43.9247 17.7386 43.5838 17.0682C43.2429 16.3939 43.0724 15.6004 43.0724 14.6875C43.0724 13.7898 43.2429 13.0019 43.5838 12.3239C43.9285 11.642 44.4096 11.1117 45.027 10.733C45.6444 10.3504 46.3698 10.1591 47.2031 10.1591C47.741 10.1591 48.2486 10.2462 48.7259 10.4205C49.2069 10.5909 49.6312 10.8561 49.9986 11.2159C50.3698 11.5758 50.6615 12.0341 50.8736 12.5909C51.0857 13.1439 51.1918 13.803 51.1918 14.5682V15.1989H44.0384V13.8125H49.2202C49.2164 13.4186 49.1312 13.0682 48.9645 12.7614C48.7978 12.4508 48.5649 12.2064 48.2656 12.0284C47.9702 11.8504 47.6255 11.7614 47.2315 11.7614C46.8111 11.7614 46.4418 11.8636 46.1236 12.0682C45.8054 12.2689 45.5573 12.5341 45.3793 12.8636C45.205 13.1894 45.116 13.5473 45.1122 13.9375V15.1477C45.1122 15.6553 45.205 16.0909 45.3906 16.4545C45.5762 16.8144 45.8357 17.0909 46.169 17.2841C46.5024 17.4735 46.8925 17.5682 47.3395 17.5682C47.6387 17.5682 47.9096 17.5265 48.152 17.4432C48.3944 17.3561 48.6046 17.2292 48.7827 17.0625C48.9607 16.8958 49.0952 16.6894 49.1861 16.4432L51.1065 16.6591C50.9853 17.1667 50.7543 17.6098 50.4134 17.9886C50.0762 18.3636 49.6444 18.6553 49.1179 18.8636C48.5914 19.0682 47.9891 19.1705 47.3111 19.1705ZM56.7955 19.1705C55.9205 19.1705 55.1648 18.9886 54.5284 18.625C53.8958 18.2576 53.4091 17.7386 53.0682 17.0682C52.7273 16.3939 52.5568 15.6004 52.5568 14.6875C52.5568 13.7898 52.7273 13.0019 53.0682 12.3239C53.4129 11.642 53.8939 11.1117 54.5114 10.733C55.1288 10.3504 55.8542 10.1591 56.6875 10.1591C57.2254 10.1591 57.733 10.2462 58.2102 10.4205C58.6913 10.5909 59.1155 10.8561 59.483 11.2159C59.8542 11.5758 60.1458 12.0341 60.358 12.5909C60.5701 13.1439 60.6761 13.803 60.6761 14.5682V15.1989H53.5227V13.8125H58.7045C58.7008 13.4186 58.6155 13.0682 58.4489 12.7614C58.2822 12.4508 58.0492 12.2064 57.75 12.0284C57.4545 11.8504 57.1098 11.7614 56.7159 11.7614C56.2955 11.7614 55.9261 11.8636 55.608 12.0682C55.2898 12.2689 55.0417 12.5341 54.8636 12.8636C54.6894 13.1894 54.6004 13.5473 54.5966 13.9375V15.1477C54.5966 15.6553 54.6894 16.0909 54.875 16.4545C55.0606 16.8144 55.3201 17.0909 55.6534 17.2841C55.9867 17.4735 56.3769 17.5682 56.8239 17.5682C57.1231 17.5682 57.3939 17.5265 57.6364 17.4432C57.8788 17.3561 58.089 17.2292 58.267 17.0625C58.4451 16.8958 58.5795 16.6894 58.6705 16.4432L60.5909 16.6591C60.4697 17.1667 60.2386 17.6098 59.8977 17.9886C59.5606 18.3636 59.1288 18.6553 58.6023 18.8636C58.0758 19.0682 57.4735 19.1705 56.7955 19.1705ZM68.4418 13.8864V19H66.3849V7.36364H68.3963V11.7557H68.4986C68.7031 11.2633 69.0194 10.875 69.4474 10.5909C69.8793 10.303 70.4285 10.1591 71.0952 10.1591C71.7012 10.1591 72.2296 10.286 72.6804 10.5398C73.1312 10.7936 73.4796 11.1648 73.7259 11.6534C73.9759 12.142 74.1009 12.7386 74.1009 13.4432V19H72.044V13.7614C72.044 13.1742 71.8925 12.7178 71.5895 12.392C71.2902 12.0625 70.8698 11.8977 70.3281 11.8977C69.9645 11.8977 69.6387 11.9773 69.3509 12.1364C69.0668 12.2917 68.8433 12.517 68.6804 12.8125C68.5213 13.108 68.4418 13.4659 68.4418 13.8864ZM80.0043 19.1705C79.152 19.1705 78.4134 18.983 77.7884 18.608C77.1634 18.233 76.6785 17.7083 76.3338 17.0341C75.9929 16.3598 75.8224 15.572 75.8224 14.6705C75.8224 13.7689 75.9929 12.9792 76.3338 12.3011C76.6785 11.6231 77.1634 11.0966 77.7884 10.7216C78.4134 10.3466 79.152 10.1591 80.0043 10.1591C80.8565 10.1591 81.5952 10.3466 82.2202 10.7216C82.8452 11.0966 83.3281 11.6231 83.669 12.3011C84.0137 12.9792 84.1861 13.7689 84.1861 14.6705C84.1861 15.572 84.0137 16.3598 83.669 17.0341C83.3281 17.7083 82.8452 18.233 82.2202 18.608C81.5952 18.983 80.8565 19.1705 80.0043 19.1705ZM80.0156 17.5227C80.4777 17.5227 80.8641 17.3958 81.1747 17.142C81.4853 16.8845 81.7164 16.5398 81.8679 16.108C82.0232 15.6761 82.1009 15.1951 82.1009 14.6648C82.1009 14.1307 82.0232 13.6477 81.8679 13.2159C81.7164 12.7803 81.4853 12.4337 81.1747 12.1761C80.8641 11.9186 80.4777 11.7898 80.0156 11.7898C79.5421 11.7898 79.1482 11.9186 78.8338 12.1761C78.5232 12.4337 78.2902 12.7803 78.1349 13.2159C77.9834 13.6477 77.9077 14.1307 77.9077 14.6648C77.9077 15.1951 77.9834 15.6761 78.1349 16.108C78.2902 16.5398 78.5232 16.8845 78.8338 17.142C79.1482 17.3958 79.5421 17.5227 80.0156 17.5227ZM87.483 19L85.017 10.2727H87.1136L88.6477 16.4091H88.7273L90.2955 10.2727H92.3693L93.9375 16.375H94.0227L95.5341 10.2727H97.6364L95.1648 19H93.0227L91.3864 13.1023H91.267L89.6307 19H87.483ZM103.041 19V10.2727H105.098V19H103.041ZM104.075 9.03409C103.75 9.03409 103.469 8.92614 103.234 8.71023C103 8.49053 102.882 8.22727 102.882 7.92045C102.882 7.60985 103 7.34659 103.234 7.13068C103.469 6.91098 103.75 6.80114 104.075 6.80114C104.405 6.80114 104.685 6.91098 104.916 7.13068C105.151 7.34659 105.268 7.60985 105.268 7.92045C105.268 8.22727 105.151 8.49053 104.916 8.71023C104.685 8.92614 104.405 9.03409 104.075 9.03409ZM111.571 10.2727V11.8636H106.554V10.2727H111.571ZM107.793 8.18182H109.849V16.375C109.849 16.6515 109.891 16.8636 109.974 17.0114C110.062 17.1553 110.175 17.2538 110.315 17.3068C110.455 17.3598 110.611 17.3864 110.781 17.3864C110.91 17.3864 111.027 17.3769 111.134 17.358C111.243 17.339 111.327 17.322 111.384 17.3068L111.73 18.9148C111.62 18.9527 111.463 18.9943 111.259 19.0398C111.058 19.0852 110.812 19.1117 110.52 19.1193C110.005 19.1345 109.541 19.0568 109.128 18.8864C108.715 18.7121 108.387 18.4432 108.145 18.0795C107.906 17.7159 107.789 17.2614 107.793 16.7159V8.18182ZM119.061 19L116.595 10.2727H118.692L120.226 16.4091H120.305L121.874 10.2727H123.947L125.516 16.375H125.601L127.112 10.2727H129.214L126.743 19H124.601L122.964 13.1023H122.845L121.209 19H119.061ZM134.207 19.1705C133.355 19.1705 132.616 18.983 131.991 18.608C131.366 18.233 130.882 17.7083 130.537 17.0341C130.196 16.3598 130.026 15.572 130.026 14.6705C130.026 13.7689 130.196 12.9792 130.537 12.3011C130.882 11.6231 131.366 11.0966 131.991 10.7216C132.616 10.3466 133.355 10.1591 134.207 10.1591C135.06 10.1591 135.798 10.3466 136.423 10.7216C137.048 11.0966 137.531 11.6231 137.872 12.3011C138.217 12.9792 138.389 13.7689 138.389 14.6705C138.389 15.572 138.217 16.3598 137.872 17.0341C137.531 17.7083 137.048 18.233 136.423 18.608C135.798 18.983 135.06 19.1705 134.207 19.1705ZM134.219 17.5227C134.681 17.5227 135.067 17.3958 135.378 17.142C135.688 16.8845 135.92 16.5398 136.071 16.108C136.226 15.6761 136.304 15.1951 136.304 14.6648C136.304 14.1307 136.226 13.6477 136.071 13.2159C135.92 12.7803 135.688 12.4337 135.378 12.1761C135.067 11.9186 134.681 11.7898 134.219 11.7898C133.745 11.7898 133.351 11.9186 133.037 12.1761C132.726 12.4337 132.493 12.7803 132.338 13.2159C132.187 13.6477 132.111 14.1307 132.111 14.6648C132.111 15.1951 132.187 15.6761 132.338 16.108C132.493 16.5398 132.726 16.8845 133.037 17.142C133.351 17.3958 133.745 17.5227 134.219 17.5227ZM140.135 19V10.2727H142.129V11.7273H142.22C142.379 11.2235 142.652 10.8352 143.038 10.5625C143.429 10.286 143.874 10.1477 144.374 10.1477C144.487 10.1477 144.614 10.1534 144.754 10.1648C144.898 10.1723 145.018 10.1856 145.112 10.2045V12.0966C145.025 12.0663 144.887 12.0398 144.697 12.017C144.512 11.9905 144.332 11.9773 144.158 11.9773C143.783 11.9773 143.446 12.0587 143.146 12.2216C142.851 12.3807 142.618 12.6023 142.447 12.8864C142.277 13.1705 142.192 13.4981 142.192 13.8693V19H140.135ZM148.354 16.2614L148.348 13.7784H148.678L151.814 10.2727H154.217L150.359 14.5682H149.933L148.354 16.2614ZM146.479 19V7.36364H148.536V19H146.479ZM151.956 19L149.115 15.0284L150.501 13.5795L154.416 19H151.956ZM162.486 12.5795L160.611 12.7841C160.558 12.5947 160.465 12.4167 160.332 12.25C160.204 12.0833 160.029 11.9489 159.81 11.8466C159.59 11.7443 159.321 11.6932 159.003 11.6932C158.575 11.6932 158.215 11.786 157.923 11.9716C157.635 12.1572 157.493 12.3977 157.497 12.6932C157.493 12.947 157.586 13.1534 157.776 13.3125C157.969 13.4716 158.287 13.6023 158.73 13.7045L160.219 14.0227C161.045 14.2008 161.658 14.483 162.06 14.8693C162.465 15.2557 162.67 15.7614 162.673 16.3864C162.67 16.9356 162.509 17.4205 162.19 17.8409C161.876 18.2576 161.438 18.5833 160.878 18.8182C160.317 19.053 159.673 19.1705 158.946 19.1705C157.878 19.1705 157.018 18.947 156.366 18.5C155.715 18.0492 155.327 17.4223 155.202 16.6193L157.207 16.4261C157.298 16.8201 157.491 17.1174 157.787 17.3182C158.082 17.5189 158.467 17.6193 158.94 17.6193C159.429 17.6193 159.821 17.5189 160.116 17.3182C160.416 17.1174 160.565 16.8693 160.565 16.5739C160.565 16.3239 160.469 16.1174 160.276 15.9545C160.086 15.7917 159.791 15.6667 159.389 15.5795L157.901 15.267C157.063 15.0928 156.444 14.7992 156.043 14.3864C155.641 13.9697 155.442 13.4432 155.446 12.8068C155.442 12.2689 155.588 11.803 155.884 11.4091C156.183 11.0114 156.598 10.7045 157.128 10.4886C157.662 10.2689 158.277 10.1591 158.974 10.1591C159.997 10.1591 160.802 10.3769 161.389 10.8125C161.98 11.2481 162.346 11.8371 162.486 12.5795Z" fill="#282828"/>
<defs>
<linearGradient id="paint0_linear_10_36960" x1="14.0107" y1="34.9893" x2="-9.98928" y2="10.9893" gradientUnits="userSpaceOnUse">
<stop stop-color="#FB432C"/>
<stop offset="1" stop-color="#FF591E"/>
</linearGradient>
</defs>
</svg>
